<svg xmlns="http://www.w3.org/2000/svg" viewBox="0 0 500 300">
  <!-- Background -->
  <rect width="500" height="300" fill="#f0f0f0"/>
  
  <!-- Road -->
  <rect x="0" y="120" width="500" height="60" fill="#808080"/>
  
  <!-- Upper parking spots -->
  <g>
    <!-- Spots -->
    <rect x="0" y="0" width="100" height="120" fill="white" stroke="black" stroke-width="2"/>
    <rect x="100" y="0" width="100" height="120" fill="white" stroke="black" stroke-width="2"/>
    <rect x="200" y="0" width="100" height="120" fill="white" stroke="black" stroke-width="2"/>
    <rect x="300" y="0" width="100" height="120" fill="white" stroke="black" stroke-width="2"/>
    <rect x="400" y="0" width="100" height="120" fill="white" stroke="black" stroke-width="2"/>
    
    <!-- Numbers -->
    <text x="45" y="65" font-size="20" text-anchor="middle">1</text>
    <text x="145" y="65" font-size="20" text-anchor="middle">2</text>
    <text x="245" y="65" font-size="20" text-anchor="middle">3</text>
    <text x="345" y="65" font-size="20" text-anchor="middle">4</text>
    <text x="445" y="65" font-size="20" text-anchor="middle">5</text>
  </g>
  
  <!-- Lower parking spots -->
  <g>
    <!-- Spots -->
    <rect x="0" y="180" width="100" height="120" fill="white" stroke="black" stroke-width="2"/>
    <rect x="100" y="180" width="100" height="120" fill="white" stroke="black" stroke-width="2"/>
    <rect x="200" y="180" width="100" height="120" fill="white" stroke="black" stroke-width="2"/>
    <rect x="300" y="180" width="100" height="120" fill="white" stroke="black" stroke-width="2"/>
    <rect x="400" y="180" width="100" height="120" fill="white" stroke="black" stroke-width="2"/>
    
    <!-- Numbers -->
    <text x="45" y="245" font-size="20" text-anchor="middle">6</text>
    <text x="145" y="245" font-size="20" text-anchor="middle">7</text>
    <text x="245" y="245" font-size="20" text-anchor="middle">8</text>
    <text x="345" y="245" font-size="20" text-anchor="middle">9</text>
    <text x="445" y="245" font-size="20" text-anchor="middle">10</text>
  </g>
  
  <!-- Road markings -->
  <line x1="0" y1="150" x2="500" y2="150" stroke="white" stroke-width="2" stroke-dasharray="20,10"/>
</svg>